<?xml version="1.0" encoding="utf-8"?>
<!-- Generator: Adobe Illustrator 22.1.0, SVG Export Plug-In . SVG Version: 6.00 Build 0)  -->
<svg version="1.1" id="图层_1" xmlns="http://www.w3.org/2000/svg" xmlns:xlink="http://www.w3.org/1999/xlink" x="0px" y="0px"
	 viewBox="0 0 1920 1080" style="enable-background:new 0 0 1920 1080;" xml:space="preserve">
<style type="text/css">
	.st0{fill:#ff878a;}
	.st1{fill-rule:evenodd;clip-rule:evenodd;fill:#fff;}
	.st2{fill:none;stroke:#40A0CF;stroke-width:2;stroke-linecap:round;stroke-linejoin:round;stroke-miterlimit:10;}
</style>
<path class="st0" d="M494.9,472.1l-99.5-54.5c-12.4-6.8-26.4,1.7-25.2,15.3l9.9,109c1.2,13.6,16.8,22.1,28,15.3l89.6-54.5
	C508.9,496,507.4,478.9,494.9,472.1z"/>
<path class="st1" d="M635.5,492.9l-10.9-113.3c-3-33-32.8-60.9-66.2-62.1l-282.5-23c-33.5-1.2-58.4,24.8-55.4,57.8l22.4,248
	c3,33,32.8,61,66.3,62.1l282.5,23c33.4,1.2,58.4-24.8,55.4-57.8l-5.3-58.9c-2.1-22.7-24.6-37.6-42.6-25.7l-38.5,25.4
	c-7.6,5-11.6,13.7-10.7,23.2l4,44c1.4,15.7-10.3,28-26.3,27.4L376,645.5c-15.9-0.6-30-13.7-31.4-29.4l-24.4-270.4
	c-1.4-15.7,10.3-28,26.3-27.4L498,335.8c15.9,0.6,30,13.7,31.4,29.4l14.3,150.6c2.1,22.7,28.9,37.1,47,25.2l34.2-24.9
	C632.4,511.1,636.4,502.4,635.5,492.9z M596,585.8L596,585.8c15.9,0.6,30,13.7,31.4,29.4l0.8,8.8c1.4,15.7-10.3,28-26.3,27.4h0
	c-15.9-0.6-30-13.7-31.4-29.4l-0.8-8.8C568.3,597.5,580.1,585.3,596,585.8z M294.2,589.5L294.2,589.5c-15.9-0.6-30-13.7-31.4-29.4
	l-0.8-8.7c-1.4-15.7,10.3-28,26.3-27.4h0c15.9,0.6,30,13.7,31.4,29.4l0.8,8.7C321.9,577.8,310.1,590.1,294.2,589.5z M287.2,512.3
	L287.2,512.3c-15.9-0.6-30-13.7-31.4-29.4l-0.8-8.7c-1.4-15.7,10.3-28,26.3-27.4h0c15.9,0.6,30,13.7,31.4,29.4l0.8,8.7
	C314.9,500.6,303.1,512.9,287.2,512.3z M280.3,435.6L280.3,435.6c-15.9-0.6-30-13.7-31.4-29.4l-0.8-8.8c-1.4-15.7,10.3-28,26.3-27.4
	l0,0c15.9,0.6,30,13.7,31.4,29.4l0.8,8.8C308,423.9,296.2,436.1,280.3,435.6z"/>
<g>
	<path class="st0" d="M802.2,534.4c9.8-1,15.3,3.3,16.5,12.8c0.5,3.9-0.5,7.6-2.9,11c-2.5,3.2-5.8,5-9.9,5.5l-21.7,2.6v163.1
		c0,3.9-1.5,7.3-4.4,10.3c-2.7,2.9-6.1,4.4-10.3,4.4c-3.9,0-7.3-1.5-10.3-4.4c-2.9-2.9-4.4-6.4-4.4-10.3V570l-43.7,5.1
		c-8.8,0-13.7-4.3-14.7-12.8c-0.5-3.9,0.5-7.6,2.9-11c2.4-3.2,5.7-5,9.9-5.5l45.5-5.5v-19.5c0-4.2,1.5-7.6,4.4-10.3
		c2.9-2.9,6.4-4.4,10.3-4.4c4.2,0,7.6,1.5,10.3,4.4c2.9,2.7,4.4,6.1,4.4,10.3V537L802.2,534.4z"/>
	<path class="st0" d="M804.4,469.5c4.2,0,7.6,1.5,10.3,4.4c2.9,2.7,4.4,6.1,4.4,10.3c0,3.9-1.5,7.3-4.4,10.3
		c-2.7,2.9-6.1,4.4-10.3,4.4h-82.9c-7.6,0-13.7-2.9-18.3-8.8c-4.6-6.1-6-12.8-4-20.2l19.5-75.6h-7.3c-3.9,0-7.3-1.5-10.3-4.4
		c-2.9-2.9-4.4-6.4-4.4-10.3c0-4.2,1.5-7.6,4.4-10.3c2.9-2.9,6.4-4.4,10.3-4.4H727l7.7-36c0.7-3.9,2.8-7,6.2-9.2
		c3.4-2.2,7.1-2.9,11-2.2c9.3,2.2,13.1,8.1,11.4,17.6l-6.2,29.7h45.5c4.2,0,7.6,1.5,10.3,4.4c2.9,2.7,4.4,6.1,4.4,10.3
		c0,3.9-1.5,7.3-4.4,10.3c-2.7,2.9-6.1,4.4-10.3,4.4H749l-19.5,75.2H804.4z"/>
	<path class="st0" d="M761.9,424.3c0-9.8,4.9-14.7,14.7-14.7c4.2,0,7.6,1.5,10.3,4.4c2.9,2.7,4.4,6.1,4.4,10.3v23.9
		c0,3.9-1.5,7.3-4.4,10.3c-2.7,2.9-6.1,4.4-10.3,4.4c-9.8,0-14.7-4.9-14.7-14.7V424.3z"/>
	<path class="st0" d="M843.3,471.3c-3.4,1.7-7.1,1.7-11,0c-3.7-1.7-6.4-4.4-8.1-8.1c-3.4-8.8-0.7-15.2,8.1-19.1l53.9-21.7
		c13.5-5.6,25.2-12.4,35.2-20.2c10.5-8.1,20.2-17.9,29-29.4l15.4-20.9H851.8c-3.9,0-7.3-1.5-10.3-4.4c-2.9-2.9-4.4-6.4-4.4-10.3
		c0-4.2,1.5-7.6,4.4-10.3c2.9-2.9,6.4-4.4,10.3-4.4h130.7c8.6,0,14.8,3.9,18.7,11.7c4.2,7.8,3.5,15.2-1.8,22L974,390.6
		c-10.3,13.7-21.8,25.3-34.5,34.9C926,435.9,912,444,897.3,449.6L843.3,471.3z"/>
	<path class="st0" d="M1007,599c4.2,0,7.6,1.5,10.3,4.4c2.9,2.7,4.4,6.1,4.4,10.3c0,3.9-1.5,7.3-4.4,10.3c-2.7,2.9-6.1,4.4-10.3,4.4
		H838.2c-3.9,0-7.3-1.5-10.3-4.4c-2.9-2.9-4.4-6.4-4.4-10.3c0-4.2,1.5-7.6,4.4-10.3c2.9-2.9,6.4-4.4,10.3-4.4H1007z"/>
	<path class="st0" d="M1009.2,510.6c-2.7,2.9-6.1,4.4-10.3,4.4H850c-3.9,0-7.3-1.5-10.3-4.4c-2.9-2.9-4.4-6.4-4.4-10.3
		c0-4.2,1.5-7.6,4.4-10.3c2.9-2.9,6.4-4.4,10.3-4.4h149c4.2,0,7.6,1.5,10.3,4.4c2.9,2.7,4.4,6.1,4.4,10.3
		C1013.6,504.2,1012.2,507.6,1009.2,510.6z"/>
	<g>
		<g>
			<path class="st0" d="M1069.1,407.4c8.1,5.4,14.9,4.3,20.6-3.3l50.6-68.3c2.4-3.4,3.4-7.1,2.9-11c-0.7-3.9-2.7-7.1-5.9-9.5
				c-3.4-2.4-7.1-3.4-11-2.9c-3.9,0.7-7.1,2.7-9.5,5.9l-51,68.6c-2.4,3.2-3.3,6.7-2.6,10.6C1063.9,401.7,1065.9,405,1069.1,407.4z"
				/>
			<path class="st0" d="M1112.7,484.1c-9.8,0-14.7,4.9-14.7,14.7v123.7c0,9.8,4.9,14.7,14.7,14.7c4.2,0,7.6-1.5,10.3-4.4
				c2.9-2.9,4.4-6.4,4.4-10.3V498.8C1127.4,489,1122.5,484.1,1112.7,484.1z"/>
			<path class="st0" d="M1188,444.1h45.5c10,0,18.7-3.5,26.1-10.6c7.1-7.3,10.6-16,10.6-26.1v-57.3c0-4.2-1.5-7.6-4.4-10.3
				c-2.7-2.9-6.1-4.4-10.3-4.4c-3.9,0-7.3,1.5-10.3,4.4c-2.9,2.7-4.4,6.1-4.4,10.3v57.3c0,4.9-2.4,7.3-7.3,7.3H1188
				c-4.9,0-7.3-2.4-7.3-7.3v-57.3c0-4.2-1.5-7.6-4.4-10.3c-2.7-2.9-6.1-4.4-10.3-4.4c-3.9,0-7.3,1.5-10.3,4.4
				c-2.9,2.7-4.4,6.1-4.4,10.3v57.3c0,10,3.5,18.7,10.6,26.1C1169.3,440.6,1177.9,444.1,1188,444.1z"/>
			<path class="st0" d="M1210.7,405.2c4.2,0,7.6-1.5,10.3-4.4c2.9-2.9,4.4-6.4,4.4-10.3v-62.4c0-9.8-4.9-14.7-14.7-14.7
				c-9.8,0-14.7,4.9-14.7,14.7v62.4c0,3.9,1.5,7.3,4.4,10.3C1203.4,403.8,1206.8,405.2,1210.7,405.2z"/>
			<path class="st0" d="M1299.5,533.7c2,7.1,6.7,10.6,14.3,10.6c4.9,0,8.8-2.1,11.7-6.2c2.7-3.9,3.4-7.9,2.2-12.1
				c-7.1-27.2-11.4-52.1-12.8-74.9l-3.7-45.9c-0.2-3.9-2-7.3-5.1-10.3c-2.9-2.7-6.5-3.8-10.6-3.3c-3.9,0.2-7.2,2-9.9,5.1
				c-2.7,2.9-3.9,6.5-3.7,10.6l3.7,45.9C1287.3,477.3,1292,504.1,1299.5,533.7z"/>
			<path class="st0" d="M1143.2,416.2c-0.7-3.9-2.7-7.1-5.9-9.5c-7.8-5.6-14.7-4.6-20.6,2.9l-44.5,59.9l-108.5-46.7
				c-9.1-3.2-15.2-0.1-18.4,9.2c-1.2,3.9-1,7.7,0.7,11.4c1.7,3.7,4.5,6.1,8.4,7.3l113.7,48.6c1,0.4,2,0.6,2.9,0.8
				c6.8,3.8,12.9,2.4,18.5-4.2l50.6-68.6C1142.7,424.1,1143.7,420.4,1143.2,416.2z"/>
			<path class="st0" d="M1375.9,452.6v-65h1.5c4.2,0,7.6-1.5,10.3-4.4c2.9-2.9,4.4-6.4,4.4-10.3c0-4.2-1.5-7.6-4.4-10.3
				c-2.7-2.9-6.1-4.4-10.3-4.4h-58.7c-2.5,0-3.7-1.2-3.7-3.7v-28.3c0-9.8-4.9-14.7-14.7-14.7c-9.8,0-14.7,4.9-14.7,14.7v28.3
				c0,9.1,3.2,16.9,9.5,23.5c6.6,6.4,14.4,9.5,23.5,9.5h27.9v65c-0.7,45.3-13.1,85.9-37.1,121.8c-11.5,15.7-22.8,29-33.8,40
				c-6.4,7.6-5.9,14.6,1.5,20.9c7.3,6.1,14.2,5.6,20.5-1.5c10.3-10.3,22-24.2,35.2-41.8c15.9-24,25.4-40.2,28.6-48.8
				C1371.1,518.3,1375.9,488.1,1375.9,452.6z"/>
			<path class="st0" d="M1389.1,613.3l-21.3-28.6c-2.4-3.2-5.6-5.1-9.5-5.9c-3.9-0.5-7.6,0.5-11,2.9c-3.2,2.4-5.1,5.6-5.9,9.5
				c-0.5,3.9,0.5,7.6,2.9,11l21.3,28.6c2.7,3.9,6.6,5.9,11.7,5.9c2.7,0,5.6-1,8.8-2.9C1393.7,628,1394.7,621.2,1389.1,613.3z"/>
			<path class="st0" d="M1156,489.6h108.3c4.2,0,7.6-1.5,10.3-4.4c2.9-2.9,4.4-6.4,4.4-10.3c0-4.2-1.5-7.6-4.4-10.3
				c-2.7-2.9-6.1-4.4-10.3-4.4H1156c-3.9,0-7.3,1.5-10.3,4.4c-2.9,2.7-4.4,6.1-4.4,10.3c0,3.9,1.5,7.3,4.4,10.3
				C1148.7,488.2,1152.1,489.6,1156,489.6z"/>
			<path class="st0" d="M1269.8,589.5c-2.7-2.9-6.1-4.4-10.3-4.4c-3.4,0-5.1-1.6-5.1-4.8v-42.2c0-9.8-3.4-18.1-10.3-25
				c-7.1-7.1-15.5-10.6-25.3-10.6h-22c-9.8,0-18.2,3.5-25.3,10.6c-6.9,6.9-10.3,15.2-10.3,25V573c0,11.3-2.9,21.5-8.8,30.8l-6.2,9.9
				c-2,3.2-2.4,6.8-1.5,11c0.7,3.9,2.8,7,6.2,9.2c8.6,4.6,15.4,3.1,20.6-4.8l5.9-9.9c8.8-14.4,13.2-29.8,13.2-46.2v-34.9
				c0-4.2,2.1-6.2,6.2-6.2h22c4.2,0,6.2,2.1,6.2,6.2v42.2c0,9.3,3.4,17.4,10.3,24.2c6.6,6.6,14.7,9.9,24.2,9.9
				c4.2,0,7.6-1.5,10.3-4.4c2.9-2.9,4.4-6.4,4.4-10.3C1274.2,595.6,1272.8,592.2,1269.8,589.5z"/>
		</g>
	</g>
	<path class="st0" d="M1513.1,574.8c9.8,0,14.7,4.9,14.7,14.7c0,3.9-1.5,7.3-4.4,10.3c-2.7,2.9-6.1,4.4-10.3,4.4h-10.3
		c-10,0-18.2-3.4-24.6-10.3c-5.4-5.6-8.1-13.1-8.1-22.4v-127h-26.1c-3.9,0-7.3-1.5-10.3-4.4c-2.9-2.9-4.4-6.4-4.4-10.3
		c0-4.2,1.5-7.6,4.4-10.3c2.9-2.9,6.4-4.4,10.3-4.4h28.3c7.8,0,14.3,2.8,19.5,8.4c5.1,5.4,7.7,12.2,7.7,20.6v127.4
		c0,1,0.1,1.8,0.4,2.6c0.5,0.5,1.5,0.7,2.9,0.7H1513.1z"/>
	<path class="st0" d="M1439.7,349.8c-7.1-6.6-7.3-13.6-0.7-20.9c2.7-2.9,6.1-4.5,10.3-4.8c4.2,0,7.7,1.3,10.6,4l51.4,47.7
		c7.1,7.1,7.3,14.1,0.7,20.9c-5.4,6.4-12.2,6.6-20.6,0.7L1439.7,349.8z"/>
	<path class="st0" d="M1742.5,502.1c4.2,0,7.6,1.5,10.3,4.4c2.9,2.7,4.4,6.1,4.4,10.3c0,3.9-1.5,7.3-4.4,10.3
		c-2.7,2.9-6.1,4.4-10.3,4.4h-206.6c-3.9,0-7.3-1.5-10.3-4.4c-2.9-2.9-4.4-6.4-4.4-10.3c0-4.2,1.5-7.6,4.4-10.3
		c2.9-2.9,6.4-4.4,10.3-4.4h91.8v-33.8c0-4.2,1.5-7.6,4.4-10.3c2.9-2.9,6.4-4.4,10.3-4.4h47.7c4.9,0,9.2-1.8,12.8-5.5
		c3.7-3.4,5.5-7.7,5.5-12.8v-67.5c0-4.9-1.8-9.2-5.5-12.8c-3.7-3.7-8-5.5-12.8-5.5h-101.7c-5.1,0-9.4,1.8-12.8,5.5
		c-3.7,3.7-5.5,8-5.5,12.8v67.5c0,5.1,1.8,9.4,5.5,12.8c3.4,3.7,7.7,5.5,12.8,5.5h19.1c4.2,0,7.6,1.5,10.3,4.4
		c2.9,2.7,4.4,6.1,4.4,10.3c0,3.9-1.5,7.3-4.4,10.3c-2.7,2.9-6.1,4.4-10.3,4.4h-19.1c-13.2,0-24.5-4.6-33.8-13.9
		c-9.3-9.3-13.9-20.6-13.9-33.8v-67.5c0-13,4.6-24.2,13.9-33.8c9.3-9.3,20.5-13.9,33.8-13.9H1690c13,0,24.2,4.6,33.8,13.9
		c9.3,9.5,13.9,20.8,13.9,33.8v67.5c0,13.2-4.7,24.5-13.9,33.8c-9.5,9.3-20.8,13.9-33.8,13.9h-33v19.1H1742.5z"/>
	<path class="st0" d="M948,562c0,14-11.3,25.3-25.3,25.3c-14,0-25.3-11.3-25.3-25.3c0-14,11.3-25.3,25.3-25.3
		C936.6,536.6,948,548,948,562z"/>
	<g>
		<g>
			<path class="st0" d="M1672.5,395.9c1.6,0,3,0.6,4.1,1.7c1.2,1.1,1.7,2.4,1.7,4.1c0,3.9-1.9,5.8-5.8,5.8h-27.6v27.6
				c0,1.6-0.6,2.9-1.7,4.1c-1.1,1.2-2.4,1.7-4.1,1.7c-1.5,0-2.9-0.6-4.1-1.7c-1.2-1.2-1.7-2.5-1.7-4.1v-27.6h-27.4
				c-3.9,0-5.8-1.9-5.8-5.8c0-1.6,0.6-3,1.7-4.1c1.2-1.2,2.5-1.7,4.1-1.7h27.4v-27.4c0-1.6,0.6-3,1.7-4.1c1.2-1.2,2.5-1.7,4.1-1.7
				c1.6,0,3,0.6,4.1,1.7c1.2,1.1,1.7,2.4,1.7,4.1v27.4H1672.5z"/>
		</g>
	</g>
	<g>
		<path class="st0" d="M1624.3,725.4V839c0,3.9,1.5,7.3,4.4,10.3c2.9,2.9,6.4,4.4,10.3,4.4c4.2,0,7.6-1.5,10.3-4.4
			c2.9-2.9,4.4-6.4,4.4-10.3V725.4H1624.3z"/>
		<path class="st0" d="M1748.8,616.3c-0.7-3.9-2.7-7.1-5.9-9.5l-86.2-62.4c-11.5-8.8-23.1-8.8-34.9,0l-86.6,62.4
			c-3.2,2.4-5.1,5.6-5.9,9.5c-0.7,3.9,0.1,7.6,2.6,11c2.4,3.2,5.6,5.1,9.5,5.9c3.9,0.7,7.6-0.1,11-2.6l71.9-52.1v133.1h29.4V578.5
			l72.3,52.1c8.3,5.1,15.1,4,20.2-3.3C1748.6,623.8,1749.5,620.2,1748.8,616.3z"/>
	</g>
</g>
<g>
	<g>
		<g>
			<polygon class="st1" points="461,594 453.6,582.5 454.7,565.3 471,571.3 478.4,582.9 461,594 			"/>
			<polygon class="st2" points="461,594 453.6,582.5 454.7,565.3 471,571.3 478.4,582.9 461,594 			"/>
		</g>
		<g>
			<path class="st1" d="M550.3,732.5c-34.7-36.3-61.3-79.8-82.3-128.2c5.8-3.7,11.6-7.4,17.4-11.1c36,38.6,63.3,81.4,82.3,128.2
				C561.9,725.1,556.1,728.8,550.3,732.5L550.3,732.5z"/>
			<path class="st2" d="M550.3,732.5c-34.7-36.3-61.3-79.8-82.3-128.2c5.8-3.7,11.6-7.4,17.4-11.1c36,38.6,63.3,81.4,82.3,128.2
				C561.9,725.1,556.1,728.8,550.3,732.5L550.3,732.5z"/>
		</g>
	</g>
</g>
</svg>
